<svg xmlns="http://www.w3.org/2000/svg" xmlns:xlink="http://www.w3.org/1999/xlink" width="1062" height="47.123" viewBox="0 0 1062 47.123">
  <defs>
    <linearGradient id="linear-gradient" x1="0.5" x2="0.5" y2="1" gradientUnits="objectBoundingBox">
      <stop offset="0" stop-color="#c7a564"/>
      <stop offset="0.481" stop-color="#fafacf"/>
      <stop offset="1" stop-color="#cbb073"/>
    </linearGradient>
    <clipPath id="clip">
      <use xlink:href="#fill"/>
    </clipPath>
    <clipPath id="clip-2">
      <use xlink:href="#fill-2"/>
    </clipPath>
    <clipPath id="clip-3">
      <use xlink:href="#fill-3"/>
    </clipPath>
    <clipPath id="clip-4">
      <use xlink:href="#fill-4"/>
    </clipPath>
    <clipPath id="clip-5">
      <use xlink:href="#fill-5"/>
    </clipPath>
    <clipPath id="clip-6">
      <use xlink:href="#fill-6"/>
    </clipPath>
    <clipPath id="clip-7">
      <use xlink:href="#fill-7"/>
    </clipPath>
    <clipPath id="clip-8">
      <use xlink:href="#fill-8"/>
    </clipPath>
    <clipPath id="clip-9">
      <use xlink:href="#fill-9"/>
    </clipPath>
  </defs>
  <g id="Group_1252" data-name="Group 1252" transform="translate(-429 -89.877)">
    <path id="Path_129" data-name="Path 129" d="M0,0,350.1-.01,334.051,46.743,0,47Z" transform="translate(429 90)" fill="#c40302"/>
    <path id="Path_130" data-name="Path 130" d="M3.79-.026,220-.01,203.1,46.744H-12.48Z" transform="translate(774.334 90)" fill="#a80503"/>
    <path id="Path_131" data-name="Path 131" d="M4.121-.014,301.686-.123V46.744l-314.545,0Z" transform="translate(989.334 90)" fill="#c40302"/>
    <g id="Group_2" data-name="Group 2" transform="translate(446.17 97.371)">
      <g id="Path_132" data-name="Path 132" transform="translate(0 0)" fill="none">
        <path d="M5.091,0H39.454L34.5,26.631H0Z" stroke="none"/>
        <path d="M 6.083438873291016 1.200000762939453 L 1.451141357421875 25.43111991882324 L 33.50628662109375 25.43111991882324 L 38.00997543334961 1.200000762939453 L 6.083438873291016 1.200000762939453 M 5.091106414794922 0 L 39.45355987548828 0 L 34.50379943847656 26.6311206817627 L -3.814697265625e-06 26.6311206817627 L 5.091106414794922 0 Z" stroke="none" fill="#fff"/>
      </g>
      <g id="Ellipse_1" data-name="Ellipse 1" transform="translate(9.14 20.987) rotate(40)" fill="#c40302" stroke="#fff" stroke-width="1.2">
        <ellipse cx="4.439" cy="4.932" rx="4.439" ry="4.932" stroke="none"/>
        <ellipse cx="4.439" cy="4.932" rx="3.839" ry="4.332" fill="none"/>
      </g>
      <g id="Group_2-2" data-name="Group 2" transform="translate(7.686 10.262)">
        <path id="Path_133" data-name="Path 133" d="M1877.095-376.6l2.418,5.125-.774,5.9" transform="translate(-1875.758 376.596)" fill="none" stroke="#fff" stroke-width="1"/>
        <path id="Path_134" data-name="Path 134" d="M1884.091-376.6l-4.544,5.411" transform="translate(-1875.791 376.596)" fill="none" stroke="#fff" stroke-width="1"/>
        <line id="Line_3" data-name="Line 3" x2="6.904" transform="translate(0.302 5.026)" fill="none" stroke="#fff" stroke-width="1"/>
        <path id="Path_135" data-name="Path 135" d="M-.307,0H6.525" transform="translate(0.307 6.999)" fill="none" stroke="#fff" stroke-width="1"/>
      </g>
      <g id="Path_136" data-name="Path 136" transform="translate(18.74 4.932)" fill="none">
        <path d="M3.507,0h10.3L10.76,15.781H0Z" stroke="none"/>
        <path d="M 4.710673332214355 1.500002861022949 L 1.869979858398438 14.28140258789063 L 9.522402763366699 14.28140258789063 L 11.99127006530762 1.500002861022949 L 4.710673332214355 1.500002861022949 M 3.507452011108398 2.86102294921875e-06 L 13.80874156951904 2.86102294921875e-06 L 10.76039123535156 15.78140258789063 L 1.9073486328125e-06 15.78140258789063 L 3.507452011108398 2.86102294921875e-06 Z" stroke="none" fill="#fff"/>
      </g>
      <path id="Path_137" data-name="Path 137" d="M1905.106-380.489h8.109l5.133,7.364-1.934,13.762-15.2.224Z" transform="translate(-1867.467 386.911)" fill="none" stroke="#fff" stroke-width="1"/>
      <g id="Ellipse_2" data-name="Ellipse 2" transform="translate(33.799 20.987) rotate(40)" fill="#c40302" stroke="#fff" stroke-width="1.2">
        <ellipse cx="4.439" cy="4.932" rx="4.439" ry="4.932" stroke="none"/>
        <ellipse cx="4.439" cy="4.932" rx="3.839" ry="4.332" fill="none"/>
      </g>
      <path id="Path_138" data-name="Path 138" d="M1907.448-377.188l-.885,6.381h8.919l-4.288-6.381Z" transform="translate(-1867.54 386.866)" fill="#fff"/>
    </g>
    <text id="_回7_000円_税抜_ご購入でさらにお得に_" data-name="１回7,000円(税抜）ご購入でさらにお得に!" transform="translate(509 107)" fill="#fff" font-size="12" font-family="YuGothic-Medium, Yu Gothic" font-weight="500"><tspan x="0" y="0">１回7,000円(税抜）ご購入でさらにお得に!</tspan></text>
    <text id="飲しいものがスグ届く_" data-name="飲しいものがスグ届く!" transform="translate(838 107)" fill="#fff" font-size="12" font-family="YuGothic-Medium, Yu Gothic" font-weight="500"><tspan x="0" y="0">飲しいものがスグ届く!</tspan></text>
    <text id="毎月の経費精算が楽になる_" data-name="毎月の経費精算が楽になる!" transform="translate(1054 107)" fill="#fff" font-size="12" font-family="YuGothic-Medium, Yu Gothic" font-weight="500"><tspan x="0" y="0">毎月の経費精算が楽になる!</tspan></text>
    <rect id="Rectangle_238" data-name="Rectangle 238" width="73" height="18" rx="2" transform="translate(512 113)" fill="#fff"/>
    <rect id="Rectangle_242" data-name="Rectangle 242" width="120" height="18" rx="2" transform="translate(1050.869 113)" fill="#fff"/>
    <text id="同じ月なら" transform="translate(519 126)" fill="#c40302" font-size="12" font-family="YuGothic-Bold, Yu Gothic" font-weight="700"><tspan x="0" y="0">同じ月なら</tspan></text>
    <text id="法人個人事業主なら" transform="translate(1056.869 126)" fill="#c40302" font-size="12" font-family="YuGothic-Bold, Yu Gothic" font-weight="700"><tspan x="0" y="0">法人個人事業主なら</tspan></text>
    <path id="Intersection_1" data-name="Intersection 1" d="M177.969,17,178,14.3V13.118l-2.2.437q-.9.171-1.555.312-.14.023-.367.07l-.14.032a.575.575,0,0,1-.1.015c-.062,0-.1-.047-.11-.14l-.2-1.265a.643.643,0,0,1-.016-.11c0-.047.052-.081.157-.1.026,0,.128-.021.305-.047q.774-.109,1.781-.3L178,11.539V5.133a19.731,19.731,0,0,0-.1-2.133h1.907a1.538,1.538,0,0,1-.1.313,8.318,8.318,0,0,0-.094,1.773v6.133q.593-.124,1.055-.242c.051-.01.14-.033.266-.07.057-.011.1-.018.117-.023a.394.394,0,0,1,.085-.015c.042,0,.073.057.094.172l.187,1.25c.005.041.008.068.008.077,0,.058-.055.094-.165.11-.031.01-.2.044-.508.1q-.555.1-1.14.219v1.492l.03,2.711Zm-8.413,0q0-.2.022-.875.062-2.774.086-4.907a15.2,15.2,0,0,1-1.938,3.641q-.2.258-.289.258c-.068,0-.131-.091-.188-.274a3.487,3.487,0,0,0-.578-1.164,13.8,13.8,0,0,0,2.578-4.446h-.29l-1.742.031c-.121,0-.18-.055-.18-.164V7.969c0-.088.011-.14.031-.156a.285.285,0,0,1,.148-.023l1.742.031h.657V4.852A18.268,18.268,0,0,0,169.533,3h1.811a1.7,1.7,0,0,1-.078.2,6.045,6.045,0,0,0-.109,1.609V7.82h.124l1.727-.031c.088,0,.14.01.157.031a.3.3,0,0,1,.023.148V9.1c0,.109-.06.164-.18.164l-1.625-.031A15.207,15.207,0,0,0,173.539,12a4.87,4.87,0,0,0-.641,1.055c-.094.193-.169.289-.226.289s-.141-.08-.25-.242a13.416,13.416,0,0,1-1.3-2.289L171.233,17Zm-17.413,0-.065-.04-.906-.625c-.1-.062-.157-.122-.157-.18q0-.046.086-.14a8.121,8.121,0,0,0,1.813-2.461c.031-.089.07-.133.117-.133a.737.737,0,0,1,.2.063l.93.391c.121.052.18.1.18.156a.42.42,0,0,1-.039.125,10.314,10.314,0,0,1-1.891,2.8.388.388,0,0,1-.033.04Zm-6.174,0L146,14.3V13.118l-2.2.437q-.9.171-1.554.312-.142.023-.367.07l-.141.032a.563.563,0,0,1-.1.015c-.062,0-.1-.047-.109-.14l-.2-1.265a.716.716,0,0,1-.015-.11c0-.047.052-.081.156-.1.026,0,.128-.021.305-.047q.774-.109,1.781-.3L146,11.539V5.133A19.892,19.892,0,0,0,145.905,3h1.907a1.476,1.476,0,0,1-.1.313,8.386,8.386,0,0,0-.094,1.773v6.133q.594-.124,1.055-.242c.052-.01.14-.033.266-.07.058-.011.1-.018.117-.023a.4.4,0,0,1,.086-.015c.041,0,.073.057.094.172l.187,1.25c.005.041.008.068.008.077,0,.058-.055.094-.164.11q-.047.015-.508.1-.554.1-1.14.219v1.492L147.648,17Zm-8.412,0q0-.2.022-.875.062-2.774.085-4.907a15.137,15.137,0,0,1-1.938,3.641q-.2.258-.289.258c-.068,0-.131-.091-.187-.274a3.47,3.47,0,0,0-.579-1.164,13.8,13.8,0,0,0,2.578-4.446h-.289l-1.742.031c-.12,0-.18-.055-.18-.164V7.969c0-.088.011-.14.032-.156a.285.285,0,0,1,.148-.023l1.742.031h.656V4.852A18.208,18.208,0,0,0,137.533,3h1.811a1.646,1.646,0,0,1-.078.2,6.025,6.025,0,0,0-.11,1.609V7.82h.125l1.726-.031c.089,0,.141.01.157.031a.3.3,0,0,1,.023.148V9.1c0,.109-.06.164-.18.164l-1.624-.031A15.168,15.168,0,0,0,141.539,12a4.835,4.835,0,0,0-.641,1.055q-.14.289-.227.289c-.058,0-.14-.08-.25-.242a13.415,13.415,0,0,1-1.3-2.289L139.233,17Zm-70.6,0q-.816-.229-1.655-.554a11.986,11.986,0,0,1-2-.969c-.063-.047-.094-.083-.094-.109s.047-.086.14-.165l.82-.656H59.555q.648.406.93.609c.14.089.211.18.211.274,0,.11-.08.183-.242.219-.041.011-.245.1-.609.258A13.989,13.989,0,0,1,56.916,17H55.453q-.042-.072-.086-.164a4.122,4.122,0,0,0-.625-.976,12.745,12.745,0,0,0,4-.993,3.007,3.007,0,0,0,.539-.32l-2.2.031c-.094,0-.149-.011-.164-.031a.285.285,0,0,1-.023-.149l.032-1.679V9.429L56.891,7.75c0-.088.01-.14.032-.157a.318.318,0,0,1,.156-.023l2.2.032h5.508l2.218-.032a.248.248,0,0,1,.157.032.3.3,0,0,1,.023.148l-.031,1.679v3.29l.031,1.679c0,.084-.011.134-.031.153a.258.258,0,0,1-.149.027l-2.218-.031h-.211a14.331,14.331,0,0,0,4.563,1.3,3.563,3.563,0,0,0-.578.993q-.037.093-.071.164Zm-8.437-3.657h7.008v-.75H58.515Zm0-1.867h7.008V10.7H58.515Zm0-1.906h7.008V8.8H58.515ZM50.9,17v-.664H41.086V17H39.36l.03-6.008V7.844l-.031-4.4c0-.088.01-.14.031-.156a.284.284,0,0,1,.148-.024L41.68,3.3H50.3l2.148-.031c.084,0,.133.011.149.031a.285.285,0,0,1,.023.148L52.593,7.3v3.7L52.624,17Zm-9.813-2.172H50.9V4.82H41.086ZM32.492,17a.938.938,0,0,1-.124-.422,2.9,2.9,0,0,0-.4-1.157q.656.047,1.664.047a.906.906,0,0,0,.578-.124.652.652,0,0,0,.125-.462v-9.6H29.984l-2.18.032c-.083,0-.132-.014-.148-.04a.318.318,0,0,1-.023-.156V3.867c0-.084.011-.133.031-.148A.271.271,0,0,1,27.8,3.7l2.18.032h4.961L37.1,3.7c.088,0,.14.01.157.032a.271.271,0,0,1,.023.14v1.25a.285.285,0,0,1-.032.172.3.3,0,0,1-.148.023L36.766,5.3c-.24-.01-.495-.018-.766-.023v6.782l.032,3.117a1.752,1.752,0,0,1-.532,1.492A2.374,2.374,0,0,1,34.4,17Zm-7.921,0,.03-2.407V10.672q0-1.023.015-1.587-.328.462-1.023,1.313c-.109.13-.2.2-.274.2s-.14-.1-.2-.289a4.478,4.478,0,0,0-.625-1.375,13.807,13.807,0,0,0,3.086-5.219q.125-.4.2-.711h1.4q.121.05.236.1c.172.1.258.2.258.274a.422.422,0,0,1-.18.289,1.638,1.638,0,0,0-.344.656,21.543,21.543,0,0,1-.914,2.11v8.164L26.265,17Zm131.108-.219a13.486,13.486,0,0,0-.273-2.641.8.8,0,0,1-.008-.094c0-.084.084-.13.25-.141l1.023-.1h.117c.084,0,.136.054.157.164a15.6,15.6,0,0,1,.367,2.656.3.3,0,0,1,.007.063c0,.094-.073.148-.219.164l-1.148.094q-.1.008-.14.008C155.724,16.953,155.679,16.9,155.679,16.781Zm7.766.031a15.875,15.875,0,0,0-1.617-2.672.214.214,0,0,1-.055-.11c0-.036.06-.083.18-.14l.883-.437a.437.437,0,0,1,.179-.063c.048,0,.1.04.172.118a13.163,13.163,0,0,1,1.727,2.523.265.265,0,0,1,.047.118c0,.047-.065.1-.2.172l-1.008.563a.476.476,0,0,1-.172.054Q163.516,16.937,163.445,16.813Zm-40.164-.329a3.334,3.334,0,0,1-1.571-1.43,16.93,16.93,0,0,1-1.648,1.415,1.631,1.631,0,0,0-.32.312.286.286,0,0,1-.235.149c-.088,0-.164-.066-.226-.2a14.408,14.408,0,0,1-.656-1.5,10.133,10.133,0,0,0,.945-.5,9.578,9.578,0,0,0,1.344-1.024V10.156h-.75l-1.172.039c-.094,0-.148-.013-.165-.039A.32.32,0,0,1,118.8,10V8.781c0-.084.011-.133.032-.149a.32.32,0,0,1,.157-.023l1.172.032h.976l1.2-.032a.247.247,0,0,1,.156.032.262.262,0,0,1,.023.14l-.031,1.524V13.7a2.7,2.7,0,0,0,1.327,1.328,9.13,9.13,0,0,0,2.961.32,68.556,68.556,0,0,0,6.875-.337,2.853,2.853,0,0,0-.429,1.235q-.062.4-.148.461a.988.988,0,0,1-.445.078q-2.6.148-5.6.149A10.9,10.9,0,0,1,123.281,16.484Zm36,.266a14.023,14.023,0,0,0-.671-2.57.428.428,0,0,1-.023-.117c0-.052.07-.094.211-.125l.992-.211a.918.918,0,0,1,.141-.016c.067,0,.122.05.164.149a13.956,13.956,0,0,1,.82,2.539.644.644,0,0,1,.016.11c0,.067-.07.117-.212.148l-1.132.227a1.335,1.335,0,0,1-.18.023C159.344,16.906,159.3,16.854,159.281,16.75Zm-52.5-3.532q0-.25.109-1.507a13.943,13.943,0,0,1-2.172-.476c-.1-.031-.164-.133-.179-.305q-.047-.508-.048-.961,0-.273.016-.531a10.906,10.906,0,0,0,2.594.626q.171-1.3.274-2.29a12.857,12.857,0,0,1-2.3-.445c-.172-.041-.258-.132-.258-.273q-.046-1.149-.047-1.485a14.342,14.342,0,0,0,2.9.609q.163-1.2.2-1.843c.016-.2.023-.407.023-.609A6.5,6.5,0,0,0,107.852,3h.054a7.8,7.8,0,0,1,1.866.437q.352.126.352.367a.469.469,0,0,1-.125.305,1.676,1.676,0,0,0-.289.688q-.14.64-.257,1.508c.156.011.328.016.515.016a10.892,10.892,0,0,0,1.454-.11c.11,0,.164.062.164.187q.008.219.008.445a6.353,6.353,0,0,1-.039.758c0,.14-.086.219-.258.235a14.9,14.9,0,0,1-1.656.085h-.477q-.07.406-.351,2.289.351.008.609.008.8,0,1.664-.062a.548.548,0,0,1,.094-.008c.11,0,.164.062.164.187a8.729,8.729,0,0,1-.078,1.2c-.015.172-.091.258-.226.258q-.7.054-1.633.054c-.26,0-.534,0-.82-.007a10.539,10.539,0,0,0-.094,1.289,2.023,2.023,0,0,0,.578,1.641,2.433,2.433,0,0,0,1.547.406q2.915,0,2.914-2.156a3.164,3.164,0,0,0-.305-1.406,6.666,6.666,0,0,0-1.132-1.507,3.275,3.275,0,0,0,.491.039,9.16,9.16,0,0,0,1.141-.133.413.413,0,0,1,.109-.015.341.341,0,0,1,.227.078,4.023,4.023,0,0,1,1.36,3.008,3.327,3.327,0,0,1-1.438,2.851,5.31,5.31,0,0,1-3.172.891Q106.781,16.828,106.781,13.218ZM93.742,14.977a4.379,4.379,0,0,1-1.672-3.555,5.318,5.318,0,0,1,.914-3.078,7.661,7.661,0,0,1,2.156-1.993V6.321q-2.828.531-5.375,1.054-.829.2-1.008.258a1.688,1.688,0,0,1-.352.125.329.329,0,0,1-.3-.242,11.673,11.673,0,0,1-.594-1.727q.852-.031,2.547-.266,6.461-.945,9.609-1.359a.647.647,0,0,1,.094-.008c.146,0,.227.06.242.18a7.579,7.579,0,0,1,.18,1.414c0,.156-.1.234-.305.234a8.018,8.018,0,0,0-1.953.352,6.484,6.484,0,0,0-3.188,2.156,4.146,4.146,0,0,0-.89,2.562q0,3.094,4.258,3.36c.234,0,.351.08.351.242a4.961,4.961,0,0,1-.179,1.374q-.063.336-.3.337A6.515,6.515,0,0,1,93.742,14.977ZM77.148,16.016a3.5,3.5,0,0,0-.977-1.055,18.585,18.585,0,0,0,2.173-.445,10.348,10.348,0,0,0,1.688-.656,2.517,2.517,0,0,0,1.437-2.382q0-1.758-1.984-1.758a14.018,14.018,0,0,0-4.532,1.242,4.9,4.9,0,0,0-.89.5.547.547,0,0,1-.32.157c-.12,0-.258-.1-.414-.289a9.61,9.61,0,0,1-.868-1.555,17.046,17.046,0,0,0,2.492-.616,15.787,15.787,0,0,1,4.672-.976,3.619,3.619,0,0,1,2.766,1.085,3.277,3.277,0,0,1,.883,2.336,3.879,3.879,0,0,1-2.289,3.586,8.67,8.67,0,0,1-3.3,1.055,1.076,1.076,0,0,1-.165.015A.406.406,0,0,1,77.148,16.016Zm106.547.015V13.875h2.273v2.155Zm-51.758-1.5a7,7,0,0,1-3.859-3.281,6.738,6.738,0,0,1-3.437,3.218,1.184,1.184,0,0,1-.383.141q-.1,0-.336-.4a3.557,3.557,0,0,0-.773-.93,8.477,8.477,0,0,0,2.586-1.414,3.811,3.811,0,0,0,1.125-1.821h-1.133l-2.156.031c-.088,0-.14-.011-.156-.031a.262.262,0,0,1-.023-.14V8.766c0-.084.01-.133.031-.148a.289.289,0,0,1,.148-.023l2.156.031h1.391a10.738,10.738,0,0,0,.047-1.1c0-.249,0-.492-.015-.726h-1.117l-2.11.031c-.084,0-.133-.011-.149-.031a.342.342,0,0,1-.015-.14V5.531c0-.094.007-.148.023-.164s.062-.024.14-.024l1.93.031a8.62,8.62,0,0,0-1.07-1.875.211.211,0,0,1-.055-.125c0-.041.058-.084.172-.125l.612-.25h.888a11.3,11.3,0,0,1,.961,1.61.289.289,0,0,1,.032.117c0,.068-.07.13-.211.187l-1.2.461h2.367a17.456,17.456,0,0,0,.977-1.82A3.4,3.4,0,0,0,129.521,3h1.362q.177.056.36.118c.14.051.211.127.211.226a.349.349,0,0,1-.2.289.974.974,0,0,0-.3.367q-.454.8-.836,1.375h.133l2.11-.031c.083,0,.132.013.148.04a.3.3,0,0,1,.023.148V6.656c0,.083-.011.132-.031.148a.247.247,0,0,1-.14.023l-2.11-.031h-1.492q-.031,1.266-.094,1.828h1.938l2.172-.031a.248.248,0,0,1,.156.031.266.266,0,0,1,.023.141v1.14a.24.24,0,0,1-.027.145.257.257,0,0,1-.152.027l-2.172-.031h-1.664a6.634,6.634,0,0,0,4.288,3.024,4.359,4.359,0,0,0-.625,1.109q-.157.445-.32.445A1.077,1.077,0,0,1,131.937,14.531ZM27.977,14c-.114,0-.172-.052-.172-.157l.032-2.9V9.391L27.8,7.422c0-.084.011-.133.032-.148a.285.285,0,0,1,.148-.023l1.5.031h1.759l1.5-.031c.089,0,.14.01.157.031a.275.275,0,0,1,.023.141l-.032,1.6v1.6l.032,2.718a.251.251,0,0,1-.028.153.255.255,0,0,1-.152.027h-1.18c-.088,0-.14-.013-.156-.039s-.023-.063-.023-.141v-.671H29.344v1.172c0,.1-.059.157-.179.157Zm1.367-2.735h2.039V8.7H29.344Zm18.211,1.922c-.094,0-.151-.014-.172-.04s-.023-.062-.023-.14v-.382H44.547v.382a.248.248,0,0,1-.032.157.3.3,0,0,1-.148.023h-1.25c-.084,0-.133-.014-.149-.04a.245.245,0,0,1-.023-.14l.032-2.187V8.656l-.032-1.6c0-.084.011-.133.032-.148a.285.285,0,0,1,.148-.023l1.742.031h2.188l1.726-.031c.089,0,.141.01.157.031a.275.275,0,0,1,.023.141l-.031,1.523v2.243l.031,2.187a.255.255,0,0,1-.027.152.231.231,0,0,1-.145.028Zm-3.008-2H47.36V8.336H44.547Zm117.835,1.82h-8.555l-2.11.032a.247.247,0,0,1-.156-.032.262.262,0,0,1-.023-.14V11.742c0-.084.01-.133.031-.148a.3.3,0,0,1,.148-.023l1.68.031V9.437h-.469l-1.969.04c-.1,0-.156-.06-.156-.18V8.132c0-.12.052-.179.156-.179l1.969.032h.469v-1.6a10.7,10.7,0,0,1-.8.766.888.888,0,0,1-.367.211q-.1,0-.352-.32a3.47,3.47,0,0,0-.719-.7,9.014,9.014,0,0,0,2.782-2.976q.1-.184.174-.36h1.826a.268.268,0,0,1-.148.227,1.876,1.876,0,0,0-.367.469q-.289.46-.524.8h7.266l2.188-.031c.094,0,.148.01.164.031a.23.23,0,0,1,.031.148V5.789c0,.078-.013.125-.04.141a.318.318,0,0,1-.156.023l-.2-.008c-.381-.011-.8-.018-1.258-.023V7.985h.258l1.961-.032c.109,0,.164.059.164.179V9.3c0,.12-.055.18-.164.18l-1.961-.04H162.9V11.6l1.6-.031c.083,0,.132.01.148.031a.271.271,0,0,1,.023.14v1.125c0,.078-.009.126-.028.144s-.066.028-.144.028ZM160.149,11.6h1.281V9.437h-1.281Zm-2.657,0h1.266V9.437h-1.266Zm-2.624,0H156.1V9.437h-1.234Zm5.281-3.617h1.281V5.922h-1.281Zm-2.657,0h1.266V5.922h-1.266Zm-2.624,0H156.1V5.922h-1.234Zm29.148,4.577-.383-8.945h2.493l-.492,8.945Zm-8.18-1.922a13.144,13.144,0,0,0-2.109-2.172.581.581,0,0,1-.11-.133c0-.031.041-.088.125-.172l.734-.7c.073-.078.122-.117.148-.117s.078.033.156.1a10.661,10.661,0,0,1,2.211,2.047.306.306,0,0,1,.078.149c0,.036-.042.1-.125.187l-.789.781c-.088.084-.151.125-.187.125S175.893,10.7,175.836,10.641Zm-32,0a13.11,13.11,0,0,0-2.11-2.172.613.613,0,0,1-.11-.133c0-.031.042-.088.125-.172l.734-.7c.073-.078.122-.117.148-.117s.078.033.157.1a10.657,10.657,0,0,1,2.21,2.047.306.306,0,0,1,.078.149c0,.036-.041.1-.125.187l-.788.781c-.089.084-.151.125-.188.125S143.893,10.7,143.836,10.641Zm24.211-3.649a12.315,12.315,0,0,0-.813-2.672.364.364,0,0,1-.031-.125c0-.057.067-.112.2-.164l.671-.274a.488.488,0,0,1,.157-.047c.041,0,.086.049.133.148a13.283,13.283,0,0,1,.859,2.687.363.363,0,0,1,.015.086q0,.117-.219.2l-.688.258a.777.777,0,0,1-.2.055C168.094,7.149,168.062,7.1,168.047,6.992Zm-32,0a12.316,12.316,0,0,0-.813-2.672.359.359,0,0,1-.031-.125c0-.057.068-.112.2-.164l.672-.274a.488.488,0,0,1,.157-.047q.062,0,.132.148a13.226,13.226,0,0,1,.86,2.687.323.323,0,0,1,.015.086q0,.117-.219.2l-.688.258a.777.777,0,0,1-.2.055C136.094,7.149,136.063,7.1,136.047,6.992Zm36.047-.015a4.454,4.454,0,0,0-.641-.274,14.178,14.178,0,0,0,.734-2.414,5.305,5.305,0,0,0,.1-.688q.953.32,1.211.445c.12.062.179.127.179.2a.16.16,0,0,1-.094.156.631.631,0,0,0-.2.359,20.17,20.17,0,0,1-.734,2.031q-.14.336-.242.337A.876.876,0,0,1,172.094,6.977Zm-32,0a4.455,4.455,0,0,0-.641-.274,14.178,14.178,0,0,0,.734-2.414,5.466,5.466,0,0,0,.1-.688q.953.32,1.21.445c.12.062.18.127.18.2a.162.162,0,0,1-.094.156.631.631,0,0,0-.2.359,20.169,20.169,0,0,1-.734,2.031q-.14.336-.242.337A.87.87,0,0,1,140.094,6.977Zm36.257-.094a10.943,10.943,0,0,0-2.18-2.1c-.057-.036-.085-.075-.085-.117s.039-.112.117-.179l.7-.672c.094-.083.154-.125.18-.125a.241.241,0,0,1,.125.055,10.878,10.878,0,0,1,2.257,2.039.2.2,0,0,1,.071.132c0,.041-.04.1-.118.172l-.765.75c-.1.095-.165.141-.2.141S176.393,6.945,176.351,6.883Zm-32,0a10.991,10.991,0,0,0-2.18-2.1c-.058-.036-.086-.075-.086-.117s.04-.112.117-.179l.7-.672c.094-.083.153-.125.179-.125a.241.241,0,0,1,.125.055,10.908,10.908,0,0,1,2.258,2.039.2.2,0,0,1,.07.132c0,.041-.039.1-.117.172l-.766.75c-.1.095-.164.141-.2.141S144.393,6.945,144.352,6.883ZM66.227,6.9H57.8l-2.14.032c-.084,0-.133-.011-.148-.032a.3.3,0,0,1-.023-.148l.031-1.086V4.547l-.031-1.1c0-.088.011-.14.031-.156a.26.26,0,0,1,.14-.024L57.8,3.3h8.422l2.133-.031a.247.247,0,0,1,.156.031.282.282,0,0,1,.024.148l-.024,1.1V5.664L68.54,6.75c0,.088-.014.14-.04.157a.245.245,0,0,1-.14.023ZM64.594,5.727h2.3V4.485h-2.3Zm-3.7,0h2.125V4.485H60.9Zm-3.766,0h2.21V4.485h-2.21Zm64.031.8A13.437,13.437,0,0,0,119.2,4.047a.222.222,0,0,1-.07-.125c0-.042.049-.1.148-.165l.875-.586a.42.42,0,0,1,.2-.094.25.25,0,0,1,.14.07,13.806,13.806,0,0,1,2,2.36.241.241,0,0,1,.055.125c0,.057-.049.12-.148.187l-.9.726a.477.477,0,0,1-.187.094C121.261,6.64,121.211,6.6,121.164,6.531Z" transform="translate(567 112)" fill="url(#linear-gradient)"/>
    <path id="Intersection_3" data-name="Intersection 3" d="M52.658,17q0-.225.014-.906.063-2.859.078-5.547a16.378,16.378,0,0,1-2.133,3.968c-.109.162-.2.243-.274.243s-.13-.092-.2-.274a5.216,5.216,0,0,0-.625-1.282,14.276,14.276,0,0,0,2.852-4.515H51.9l-1.891.031c-.078,0-.125-.01-.14-.031a.348.348,0,0,1-.015-.14V7.391c0-.084.007-.133.023-.148a.224.224,0,0,1,.132-.023L51.9,7.25h.82V5.343q-.9.2-1.6.32a2.993,2.993,0,0,1-.336.04.259.259,0,0,1-.219-.1,2.194,2.194,0,0,1-.148-.32A3.273,3.273,0,0,0,49.9,4.4a18.954,18.954,0,0,0,4.8-1.227q.2-.086.374-.172h.77a8.177,8.177,0,0,1,.755.727.533.533,0,0,1,.164.3q0,.18-.305.227a3.905,3.905,0,0,0-.688.18q-.726.273-1.453.476V7.25h.414l1.883-.031c.088,0,.14.01.157.031a.271.271,0,0,1,.023.14V8.547c0,.083-.011.132-.032.148a.285.285,0,0,1-.148.023l-1.883-.031h-.18a9.984,9.984,0,0,0,2.1,2.562,4.7,4.7,0,0,0-.609,1.164c-.067.183-.138.274-.211.274s-.154-.076-.274-.227A9.256,9.256,0,0,1,54.281,10.4l.085,6.6Zm-8.173,0v-.359H37.539V17H35.907l.031-2.18V13.789l-.031-1.344c0-.088.01-.143.031-.164a.262.262,0,0,1,.14-.023l2.227.031h5.414l2.219-.031c.088,0,.14.013.156.039a.285.285,0,0,1,.023.148L46.086,13.6v1.18L46.117,17Zm-6.945-1.383h6.945V14.93H37.539Zm0-1.616h6.945v-.672H37.539ZM22.51,17a2.76,2.76,0,0,1-.12-.359,3.572,3.572,0,0,0-.593-1.235q.859.086,1.25.086a1.769,1.769,0,0,0,.867-.133.545.545,0,0,0,.172-.477v-7.8H20.18l-2.047.031c-.073,0-.118-.007-.133-.023a.267.267,0,0,1-.023-.148V5.68A.32.32,0,0,1,18,5.515a.227.227,0,0,1,.133-.023l2.047.031h3.906V4.547q0-.952-.058-1.547h1.911a1.641,1.641,0,0,1-.072.313,5.085,5.085,0,0,0-.086,1.2V5.523h3.844l2.047-.031c.084,0,.133.013.148.04a.3.3,0,0,1,.023.148V6.937c0,.084-.011.133-.031.148a.262.262,0,0,1-.14.023l-2.047-.031h-3.7a11.3,11.3,0,0,0,1.327,2.906A16.223,16.223,0,0,0,29,8.227a3.538,3.538,0,0,0,.508-.766,9.1,9.1,0,0,1,1.25.906.484.484,0,0,1,.2.32c0,.1-.076.184-.226.257a3.553,3.553,0,0,0-.813.656,18.119,18.119,0,0,1-1.8,1.6,12.741,12.741,0,0,0,4.133,3.242,5.415,5.415,0,0,0-.867,1.156q-.211.367-.305.367a1.283,1.283,0,0,1-.367-.2A11.826,11.826,0,0,1,25.7,9.437q.109,4.766.11,5.875a1.567,1.567,0,0,1-.61,1.461A2.043,2.043,0,0,1,24.53,17ZM12.494,17a1.356,1.356,0,0,1-.072-.235,3.543,3.543,0,0,0-.414-1.085q.532.047,1.086.047a.71.71,0,0,0,.531-.149.505.505,0,0,0,.094-.344v-.609H9.836v.563L9.866,17H8.3l.029-1.781v-3.57L8.3,9.906c0-.088.01-.14.031-.157a.278.278,0,0,1,.141-.023l1.922.031h2.75l1.906-.031a.285.285,0,0,1,.172.031.3.3,0,0,1,.023.149l-.031,1.867v1.414l.015,2.289a1.668,1.668,0,0,1-.4,1.305,1.117,1.117,0,0,1-.439.219ZM9.836,13.57h3.883v-.8H9.836Zm0-1.859h3.883v-.734H9.836ZM2.4,17l.037-2.3V13.68L2.4,12.18c0-.088.013-.14.039-.157A.32.32,0,0,1,2.594,12l1.453.031H5.406L6.875,12c.088,0,.14.011.156.031a.282.282,0,0,1,.024.148l-.031,1.227v1.1l.031,2.3a.247.247,0,0,1-.031.156.262.262,0,0,1-.14.023H5.742c-.083,0-.132-.01-.148-.031a.293.293,0,0,1-.023-.148v-.43H3.906V17Zm1.506-1.946H5.57V13.36H3.906Zm58.93,1.7-.414-1.359q-3,.625-5.907,1.085a1.713,1.713,0,0,0-.554.18.565.565,0,0,1-.274.109c-.114,0-.2-.075-.242-.226a11.459,11.459,0,0,1-.414-1.688q.7,0,1.437-.055a78.846,78.846,0,0,0,2.117-9.649,11.88,11.88,0,0,0,.18-1.828c0-.052,0-.109-.008-.172a16.609,16.609,0,0,1,1.75.337c.2.057.3.138.3.242a.662.662,0,0,1-.117.3,2.456,2.456,0,0,0-.289.868q-1.085,5.82-2.2,9.711,2.249-.3,3.726-.594a33.348,33.348,0,0,0-1.414-3.25.3.3,0,0,1-.039-.125c0-.058.055-.113.164-.164l.938-.445a.775.775,0,0,1,.2-.063c.036,0,.075.045.117.133a30.976,30.976,0,0,1,2.507,5.945.427.427,0,0,1,.023.109c0,.058-.07.118-.211.18l-1.086.477a.889.889,0,0,1-.211.07C62.893,16.883,62.862,16.838,62.836,16.75Zm20.242-2.375A7.306,7.306,0,0,1,81.8,9.859a6.915,6.915,0,0,1,1.672-4.984,4.835,4.835,0,0,1,3.657-1.469A4.76,4.76,0,0,1,91.157,5.3,7.322,7.322,0,0,1,92.437,9.82,6.906,6.906,0,0,1,90.773,14.8a4.828,4.828,0,0,1-3.664,1.477A4.753,4.753,0,0,1,83.078,14.375Zm1.742-7.953a6.735,6.735,0,0,0-.734,3.422,6.133,6.133,0,0,0,.945,3.727,2.624,2.624,0,0,0,4.391-.32,6.756,6.756,0,0,0,.726-3.407,6.16,6.16,0,0,0-.938-3.734,2.479,2.479,0,0,0-2.085-1.039A2.53,2.53,0,0,0,84.821,6.422Zm17.1,9.609L98.3,10.063,96.852,11.7v4.335H94.727V3.617h2.125V9.281l4.687-5.664H104L99.7,8.555l4.672,7.476ZM68.531,14.586a7.1,7.1,0,0,1-1.078-2.954,28.035,28.035,0,0,1-.382-4.656,9.85,9.85,0,0,0-.2-2.094,6.265,6.265,0,0,1,2.03.524q.258.117.258.289a1.288,1.288,0,0,1-.133.446,5.9,5.9,0,0,0-.14,1.57,21.3,21.3,0,0,0,.289,3.649q.414,2.35,1.313,2.351.406,0,.773-.562a8.84,8.84,0,0,0,.758-1.664,6.7,6.7,0,0,0,1.023,1.235.45.45,0,0,1,.164.344.8.8,0,0,1-.047.25A4.5,4.5,0,0,1,71.9,15.25a2.218,2.218,0,0,1-1.453.555A2.379,2.379,0,0,1,68.531,14.586Zm-49.867.835a12.34,12.34,0,0,1-.688-1.453,9.118,9.118,0,0,0,1.3-.531,26.808,26.808,0,0,0,3.969-2.477,7.553,7.553,0,0,0,.156,1.132,2.338,2.338,0,0,1,.063.375c0,.1-.118.248-.352.43a31.988,31.988,0,0,1-3.484,2.25,3.606,3.606,0,0,0-.462.32.375.375,0,0,1-.257.165C18.813,15.633,18.732,15.563,18.664,15.422Zm59.39-2.687a12.765,12.765,0,0,0-1.179-3.218A10.783,10.783,0,0,0,75.07,7.149q.79-.5,1.258-.734a.536.536,0,0,1,.18-.063.262.262,0,0,1,.172.094A9.493,9.493,0,0,1,78.75,9.1a9.753,9.753,0,0,1,1.063,2.821.366.366,0,0,1,.015.094c0,.094-.063.179-.187.257a5.941,5.941,0,0,1-1.25.641.508.508,0,0,1-.141.023C78.146,12.938,78.08,12.87,78.054,12.734ZM46.023,11.679H35.969l-1.985.031c-.1,0-.156-.058-.156-.172v-.883a.138.138,0,0,1,.156-.156l1.985.031h4.149v-.64H37.734l-2.211.031c-.1,0-.156-.057-.156-.172V9.055c0-.115.052-.172.156-.172l2.211.031h2.383V8.274H37.891L35.735,8.3a.288.288,0,0,1-.172-.031.275.275,0,0,1-.023-.141V7.375c0-.083.013-.132.039-.148a.306.306,0,0,1,.157-.024l2.156.031h2.227V6.539H36.344l-2.164.031c-.083,0-.132-.01-.149-.031a.278.278,0,0,1-.023-.141V5.547c0-.083.011-.132.032-.148a.271.271,0,0,1,.14-.023l2.164.031h3.774V4.734H37.968l-2.218.031a.24.24,0,0,1-.156-.031.262.262,0,0,1-.023-.14v-.82a.271.271,0,0,1,.031-.165.3.3,0,0,1,.149-.023l2.218.031h2.149q-.012-.34-.04-.617h1.782q-.013.04-.031.086a1.716,1.716,0,0,0-.078.531H43.6l2.649-.031c.083,0,.132.013.148.04a.3.3,0,0,1,.023.148l-.031,1.391v.164L47.828,5.3c.095,0,.148.013.165.04s.031.065.031.148v.977c0,.083-.013.132-.039.148a.32.32,0,0,1-.157.023L46.391,6.6v.1l.031,1.429c0,.084-.011.133-.031.148a.262.262,0,0,1-.14.023L43.6,8.274H41.75v.641H44.3l2.2-.031c.1,0,.156.057.156.172V9.75c0,.115-.052.172-.156.172l-2.2-.031H41.75v.64h4.273l1.985-.031c.114,0,.172.052.172.156v.883a.13.13,0,0,1-.172.172ZM41.75,7.234h3.07V6.539H41.75Zm0-1.828h3.07V4.734H41.75ZM5.368,11.172H4.148L2.789,11.2a.248.248,0,0,1-.157-.031.3.3,0,0,1-.023-.149V10c0-.083.013-.135.04-.157a.245.245,0,0,1,.14-.023l1.359.04h1.22l1.344-.04a.266.266,0,0,1,.164.031A.3.3,0,0,1,6.9,10v1.023c0,.089-.011.141-.031.157a.318.318,0,0,1-.156.023ZM21.4,10.883a10.81,10.81,0,0,0-2.125-2.1c-.073-.058-.11-.1-.11-.125s.047-.1.141-.2L20.07,7.7c.084-.083.146-.125.188-.125a.267.267,0,0,1,.132.063A11.644,11.644,0,0,1,22.6,9.6a.26.26,0,0,1,.094.157.419.419,0,0,1-.094.164l-.883.891c-.1.1-.166.156-.2.156S21.445,10.94,21.4,10.883ZM14.071,9.094h-4.3L7.625,9.11c-.12,0-.179-.052-.179-.157V8.039a.288.288,0,0,1,.031-.172.3.3,0,0,1,.148-.023l2.141.031h1.117v-.75h-.554l-1.922.031c-.109,0-.164-.059-.164-.179V6.164c0-.12.055-.18.164-.18l1.922.031h.554V5.281H10.1l-2.016.032a.247.247,0,0,1-.156-.032.262.262,0,0,1-.023-.14V4.258c0-.084.013-.136.039-.157a.247.247,0,0,1,.14-.023l2.016.04h.781Q10.867,3.533,10.819,3H12.57l-.055.219a3.75,3.75,0,0,0-.078.9h1.25l2.031-.04c.084,0,.133.011.149.032a.285.285,0,0,1,.023.148v.883c0,.083-.01.132-.031.148a.278.278,0,0,1-.141.023l-2.031-.032h-1.25v.734h.8l1.922-.031c.094,0,.149.011.165.031a.231.231,0,0,1,.031.148v.813c0,.088-.013.14-.039.156a.309.309,0,0,1-.157.023L13.25,7.125h-.813v.75h1.634L16.2,7.844c.078,0,.125.014.14.04a.318.318,0,0,1,.023.156v.914c0,.1-.055.157-.164.157Zm-8.7-.07H4.148l-1.359.031a.248.248,0,0,1-.157-.031.271.271,0,0,1-.023-.14V7.844c0-.088.013-.14.04-.156s.062-.023.14-.023L4.148,7.7h1.22l1.344-.031a.267.267,0,0,1,.164.031.3.3,0,0,1,.023.148v1.04c0,.083-.011.132-.031.148a.318.318,0,0,1-.156.023Zm.2-2.164H3.656L1.938,6.89c-.073,0-.117-.013-.133-.039A.3.3,0,0,1,1.781,6.7V5.563c0-.115.052-.172.157-.172l1.718.031H5.57l1.719-.031c.084,0,.133.01.148.031a.275.275,0,0,1,.023.141V6.7a.266.266,0,0,1-.031.164.262.262,0,0,1-.14.023ZM29,5.234a9.388,9.388,0,0,0-1.695-1.6c-.063-.047-.095-.083-.095-.109s.047-.086.141-.164L27.776,3h1.017a12.249,12.249,0,0,1,1.418,1.29.147.147,0,0,1,.07.109c0,.058-.055.128-.164.212l-.766.64a.463.463,0,0,1-.187.11C29.122,5.359,29.067,5.318,29,5.234ZM5.43,4.578H4.086L2.633,4.61c-.088,0-.14-.011-.156-.032a.285.285,0,0,1-.023-.148V3.375c0-.084.01-.133.031-.148A.3.3,0,0,1,2.633,3.2l1.453.032H5.43L6.867,3.2a.285.285,0,0,1,.172.032.262.262,0,0,1,.023.14V4.43c0,.088-.013.14-.039.156a.306.306,0,0,1-.157.024Z" transform="translate(1177.869 112)" fill="url(#linear-gradient)"/>
    <path id="Intersection_2" data-name="Intersection 2" d="M133.77,17a.271.271,0,0,1-.035-.07,14.891,14.891,0,0,0-1.555-3.008.2.2,0,0,1-.047-.11c0-.047.066-.1.2-.149l.875-.351a.739.739,0,0,1,.2-.063c.047,0,.1.037.148.11a14.076,14.076,0,0,1,1.679,2.9.359.359,0,0,1,.04.125c0,.052-.06.107-.18.164l-1.07.445L134,17Zm-4.134,0a.233.233,0,0,1-.05-.11,13.411,13.411,0,0,0-.812-2.89.286.286,0,0,1-.031-.1c0-.052.076-.094.227-.125l1.023-.235a.56.56,0,0,1,.132-.023q.086,0,.157.165a15.463,15.463,0,0,1,.938,2.851.574.574,0,0,1,.015.1c0,.068-.068.117-.2.149L130,17Zm-3.662,0a.173.173,0,0,1-.035-.117,17.621,17.621,0,0,0-.29-2.9.572.572,0,0,1-.007-.078c0-.083.077-.132.234-.148l1.04-.077c.051-.005.085-.008.1-.008.094,0,.151.06.172.18a17.519,17.519,0,0,1,.438,2.883V16.8c0,.11-.076.169-.227.18l-.448.023Zm-3.741,0-.88-.484c-.125-.073-.187-.133-.187-.18a.22.22,0,0,1,.07-.125,8.89,8.89,0,0,0,1.719-2.7c.031-.094.073-.141.124-.141a.836.836,0,0,1,.211.055l.922.352c.136.057.2.109.2.156a.378.378,0,0,1-.023.1A10.3,10.3,0,0,1,122.742,17Zm-15.855,0a1.454,1.454,0,0,1-.307-.32,3.688,3.688,0,0,0-1.04-.851,8.832,8.832,0,0,0,3.821-4.336,17.475,17.475,0,0,0,1.008-6.211h-2.3l-2.016.032a.285.285,0,0,1-.172-.032.271.271,0,0,1-.023-.14V3.821c0-.084.013-.133.04-.148a.318.318,0,0,1,.156-.023l2.016.032h9.625l2.039-.032c.1,0,.157.057.157.172v1.32c0,.114-.052.172-.157.172l-2.039-.032h-5.547q-.023,1.4-.148,2.579h4.164l1.914-.031a.158.158,0,0,1,.179.18q0,.734-.031,1.562a31.514,31.514,0,0,1-.547,5.116,2.776,2.776,0,0,1-.961,1.766,2.886,2.886,0,0,1-1.726.446q-.883,0-1.5-.062a.794.794,0,0,1-.461-.133,1.26,1.26,0,0,1-.148-.461,4.571,4.571,0,0,0-.414-1.258,14.993,14.993,0,0,0,2.32.2,1.149,1.149,0,0,0,1.2-1.07,27.431,27.431,0,0,0,.469-4.657h-4.672a13.5,13.5,0,0,1-.789,2.719,9.815,9.815,0,0,1-3.711,4.64,1.524,1.524,0,0,1-.289.18ZM80.159,17a2.321,2.321,0,0,1-.065-.312,3.753,3.753,0,0,0-.422-1.141q.782.078,1.445.078a.843.843,0,0,0,.6-.157.642.642,0,0,0,.132-.461V8.476H77.773l-2.2.031c-.084,0-.131-.013-.141-.039a.4.4,0,0,1-.015-.148V7.234a.342.342,0,0,1,.023-.172.227.227,0,0,1,.133-.023l2.2.031h5.008l2.156-.031c.094,0,.151.013.172.04a.318.318,0,0,1,.023.156V8.321c0,.088-.013.143-.039.164a.322.322,0,0,1-.157.023l-.18-.008q-.547-.015-1.257-.023v4.109l.031,2.672a1.873,1.873,0,0,1-.461,1.492,1.811,1.811,0,0,1-.483.25Zm-7.6,0,.03-1.93V13.023q0-.7.032-2.078a8.708,8.708,0,0,1-1.039,1.1.744.744,0,0,1-.336.2q-.126,0-.227-.289a4.064,4.064,0,0,0-.57-1.07A11.357,11.357,0,0,0,73.484,7.07a4.281,4.281,0,0,0,.352-.961q.844.336,1.282.563c.172.11.257.2.257.274s-.06.159-.18.257a1.465,1.465,0,0,0-.3.462q-.454.844-.688,1.219v6.187l.03,1.93Zm-5.988,0a.238.238,0,0,1-.006-.055v-.734h-9.1V17H55.774l.031-1.383V13.508a17.147,17.147,0,0,0-.094-2.016q.937.023,1.679.11c.183.021.274.08.274.179a2.713,2.713,0,0,1-.094.32,5.027,5.027,0,0,0-.11,1.391v1.18h3.595V9.75H57.969v.656c0,.084-.011.133-.032.149a.262.262,0,0,1-.14.023H56.461c-.083,0-.132-.01-.148-.031a.273.273,0,0,1-.023-.141l.032-1.523v-2.4a17.732,17.732,0,0,0-.094-2.047q.937.023,1.679.109c.162.015.242.081.242.2a.588.588,0,0,1-.031.164,1.447,1.447,0,0,0-.047.157,5.187,5.187,0,0,0-.1,1.406V8.211h3.086v-3.5q0-.958-.071-1.711h1.948a2.577,2.577,0,0,1-.089.25,7.722,7.722,0,0,0-.077,1.477V8.211h3.28V6.422q0-1.257-.077-2.031.89.024,1.656.11c.172.015.257.073.257.172a1.4,1.4,0,0,1-.077.32,6.359,6.359,0,0,0-.11,1.57V8.82l.031,1.524a.318.318,0,0,1-.023.16c-.016.018-.06.027-.133.027H66.242a.29.29,0,0,1-.172-.031.32.32,0,0,1-.023-.157V9.75h-3.28v4.922h3.8V13.461a15.774,15.774,0,0,0-.1-2.031q.938.023,1.68.109c.161.021.242.081.242.18a1.492,1.492,0,0,1-.078.32,5.848,5.848,0,0,0-.117,1.562v1.938l.032,1.406a.239.239,0,0,1-.006.055ZM40.956,17a.093.093,0,0,1-.046-.02.228.228,0,0,1-.028-.144l.032-5.7V8.047l-.032-4.18a.264.264,0,0,1,.032-.164.285.285,0,0,1,.148-.023l2.2.031h5.492l2.211-.031c.084,0,.133.013.149.039a.3.3,0,0,1,.023.148l-.032,3.7v3.555l.032,5.625c0,.088-.011.14-.032.157a.271.271,0,0,1-.14.023H49.547c-.088,0-.14-.011-.157-.031a.3.3,0,0,1-.023-.149v-.781h-6.71v.868c0,.083-.011.132-.032.149a.105.105,0,0,1-.04.015Zm1.7-2.617h6.71V10.516h-6.71Zm0-5.438h6.71V5.3h-6.71ZM34.132,17v-.484H26.2l-2.2.031c-.088,0-.14-.01-.157-.031a.275.275,0,0,1-.023-.141V15.117a.264.264,0,0,1,.031-.164.285.285,0,0,1,.149-.023l2.2.031h7.937V13.118H27.015l-2.2.031c-.094,0-.148-.01-.164-.031a.215.215,0,0,1-.031-.141V11.789c0-.084.014-.133.04-.149a.318.318,0,0,1,.156-.023l2.2.032h7.117V9.843H26.289l-2.172.032c-.084,0-.136-.01-.157-.032a.293.293,0,0,1-.023-.148V8.446c0-.089.014-.143.04-.165a.245.245,0,0,1,.14-.023l2.172.031H29.11V4.672q0-.989-.063-1.672h1.963a.217.217,0,0,1,.007.055.856.856,0,0,1-.117.336A4.75,4.75,0,0,0,30.8,4.672V8.289h2.672l2.188-.031c.094,0,.151.013.172.04a.318.318,0,0,1,.023.156l-.031,1.953v4.508L35.858,17Zm53.626-2.32a8,8,0,0,1-.946-4.281q0-6.781,4.227-6.782A3.136,3.136,0,0,1,94.218,5.61l-1.953.726q-.258-1.2-1.273-1.2-2.109,0-2.21,4.32a2.708,2.708,0,0,1,2.492-1.437,2.827,2.827,0,0,1,2.414,1.2,4.555,4.555,0,0,1,.774,2.759,4.448,4.448,0,0,1-1.18,3.281,3.435,3.435,0,0,1-2.547,1.008A3.294,3.294,0,0,1,87.758,14.68ZM88.8,11.1q0,3.617,1.922,3.617,1.727,0,1.726-2.687,0-2.476-1.649-2.477A2.282,2.282,0,0,0,88.8,11.1Zm7.828,4.929V14.477h2.4v-8.7A8.8,8.8,0,0,1,96.765,6.86l-.32-1.68a9.031,9.031,0,0,0,2.844-1.437h1.641V14.477H103.2v1.554Zm-20.867-.8c-.088,0-.143-.01-.164-.031a.3.3,0,0,1-.023-.149l.031-2.492V11.469L75.57,9.891c0-.089.013-.141.039-.157a.3.3,0,0,1,.148-.023l1.477.031h1.609l1.469-.031c.088,0,.14.011.157.031a.3.3,0,0,1,.023.148l-.032,1.3v1.179l.032,2.368c0,.083-.009.134-.028.152a.234.234,0,0,1-.144.027h-1.1c-.089,0-.14-.01-.157-.031a.293.293,0,0,1-.023-.148v-.462H77.024v.781c0,.121-.052.18-.157.18Zm1.266-2.258h2.015V11.023H77.024Zm53.992-.179H125.7l-2.218.031c-.089,0-.14-.01-.157-.031a.3.3,0,0,1-.023-.148l.032-1.422V9.008L123.3,7.563c0-.1.06-.157.18-.157l2.218.031h1.469V4.657q0-.87-.078-1.657h1.958a1.044,1.044,0,0,1-.053.2,3.2,3.2,0,0,0-.117,1.125v.125H132.5l2.086-.031c.084,0,.132.01.148.031a.3.3,0,0,1,.023.148V5.875c0,.1-.058.156-.172.156L132.5,6h-3.617V7.438h2.133l2.219-.031c.12,0,.18.052.18.157l-.031,1.445v2.219l.031,1.422c0,.083-.009.134-.028.152a.255.255,0,0,1-.152.027Zm-5.984-1.524h6.656V8.961h-6.656ZM33.156,7.618A6.561,6.561,0,0,0,32.1,7.055,13.726,13.726,0,0,0,33.875,4.18a4.34,4.34,0,0,0,.227-.671,9.631,9.631,0,0,1,1.516.718c.12.063.179.139.179.227,0,.052-.054.125-.164.219a1.074,1.074,0,0,0-.274.382,16.222,16.222,0,0,1-1.5,2.453q-.235.305-.32.305A1,1,0,0,1,33.156,7.618ZM26.132,7.6a12.123,12.123,0,0,0-1.7-3.1.249.249,0,0,1-.055-.125c0-.041.058-.091.172-.149L25.6,3.68a.439.439,0,0,1,.18-.071c.041,0,.083.034.125.1a14.5,14.5,0,0,1,1.781,3.071.425.425,0,0,1,.031.125c0,.041-.066.1-.2.179l-1.071.563a.51.51,0,0,1-.2.078C26.211,7.727,26.169,7.685,26.132,7.6ZM75.055,6.289c-.088,0-.14-.014-.157-.04a.318.318,0,0,1-.023-.156c0-.011.005-.1.016-.258s.01-.356.015-.539h-1.82l-2,.031c-.094,0-.148-.013-.164-.039a.23.23,0,0,1-.031-.148V3.984c0-.084.013-.132.04-.148a.318.318,0,0,1,.156-.023l2,.032h1.82q-.013-.5-.041-.844h1.729a.553.553,0,0,1-.032.055,1.794,1.794,0,0,0-.1.789h2.976q0-.485-.032-.844h1.711a.507.507,0,0,1-.032.055,1.931,1.931,0,0,0-.094.789h1.914l2.016-.032c.109,0,.164.058.164.172V5.141a.266.266,0,0,1-.031.164.224.224,0,0,1-.132.023L82.906,5.3H80.992l.031.8c0,.088-.011.14-.031.156a.285.285,0,0,1-.149.023H79.578c-.083,0-.132-.01-.148-.031a.3.3,0,0,1-.023-.148c0-.016,0-.1.008-.266q.015-.266.023-.532H76.461l.031.8a.288.288,0,0,1-.031.172.278.278,0,0,1-.141.023Z" transform="translate(814.14 112)" fill="#f8ec01"/>
    <g id="Group_5" data-name="Group 5" transform="translate(782.905 97.371)">
      <path id="Path_139" data-name="Path 139" d="M4.172.291H17.2" transform="translate(-1.44 27.112)" fill="none" stroke="#fff" stroke-width="1.5"/>
      <path id="Path_144" data-name="Path 144" d="M4.368.936h12.97" transform="translate(-4.368 22.697)" fill="none" stroke="#fff" stroke-width="1.5"/>
      <path id="Path_145" data-name="Path 145" d="M11.927.936h5.848" transform="translate(-2.68 18.928)" fill="none" stroke="#fff" stroke-width="1.5"/>
      <path id="Path_146" data-name="Path 146" d="M9,.936h8.61" transform="translate(-2.51 15.159)" fill="none" stroke="#fff" stroke-width="1.5"/>
      <path id="Path_147" data-name="Path 147" d="M16.3.936h1.728" transform="translate(-13.297 15.159)" fill="none" stroke="#fff" stroke-width="1.5"/>
      <path id="Path_140" data-name="Path 140" d="M2233.992-360.285s-5.193-7.816-.26-15.137c0,0,4.7-7.219,12.454-6.757,0,0,10.122.088,10.993,11.825,0,0,.386,11.55-13.58,14.319h-18.476" transform="translate(-2214.839 387.665)" fill="none" stroke="#fff" stroke-width="1.5"/>
      <path id="Path_141" data-name="Path 141" d="M2246.542-378.3l-.6,9.488h4.924" transform="translate(-2216.042 387.439)" fill="none" stroke="#fff" stroke-width="1"/>
      <g id="Group_4" data-name="Group 4" transform="translate(26.186 0)">
        <g id="Rectangle_238-2" data-name="Rectangle 238" fill="none" stroke="#fff" stroke-width="1">
          <rect width="10.365" height="3.769" stroke="none"/>
          <rect x="0.5" y="0.5" width="9.365" height="2.769" fill="none"/>
        </g>
        <line id="Line_4" data-name="Line 4" y2="2.827" transform="translate(5.182 3.298)" fill="none" stroke="#fff" stroke-width="1"/>
      </g>
      <path id="Path_142" data-name="Path 142" d="M2258.7-381.49l-2.717,2.458" transform="translate(-2216.622 388.175)" fill="none" stroke="#fff" stroke-width="1"/>
      <path id="Path_143" data-name="Path 143" d="M2258.088-382.831l.638,1.425,1.252.69" transform="translate(-2216.744 388.253)" fill="none" stroke="#fff" stroke-width="1"/>
    </g>
    <rect id="Rectangle_244" data-name="Rectangle 244" width="192" height="47" rx="2" transform="translate(1299 90)" fill="#c40302"/>
    <text id="今すぐカンタン登録" transform="translate(1337 118)" fill="#fff" font-size="13" font-family="YuGothic-Medium, Yu Gothic" font-weight="500"><tspan x="0" y="0">今すぐカンタン登録</tspan></text>
    <g id="Group_7" data-name="Group 7" transform="translate(-3126 1077)">
      <circle id="Ellipse_3" data-name="Ellipse 3" cx="7.5" cy="7.5" r="7.5" transform="translate(4591 -971)" fill="#fff"/>
      <path id="Path_148" data-name="Path 148" d="M4572.977-966.967v6.26l4.827-3.017Z" transform="translate(23.11 0.337)" fill="#c40302"/>
    </g>
    <g id="Group_9" data-name="Group 9" transform="translate(998.431 95)">
      <g id="Path_148-2" data-name="Path 148" transform="translate(0 4.337)" fill="#c40302">
        <path d="M 26.29772758483887 31.16342163085938 L 0.6055830717086792 31.16342163085938 L 6.516408443450928 0.5000008344650269 L 31.79681015014648 0.5000008344650269 L 26.29772758483887 31.16342163085938 Z" stroke="none"/>
        <path d="M 6.929229736328125 1 L 1.21116828918457 30.66342163085938 L 25.87941741943359 30.66342163085938 L 31.19916343688965 1 L 6.929229736328125 1 M 6.103588104248047 0 L 32.39445877075195 0 L 26.71603775024414 31.66342163085938 L -3.814697265625e-06 31.66342163085938 L 6.103588104248047 0 Z" stroke="none" fill="#fff"/>
      </g>
      <g id="Path_152" data-name="Path 152" transform="translate(19.728 21.625)" fill="#c40302">
        <path d="M 11.79414463043213 13.97484302520752 L 0.4844730794429779 13.97484302520752 L 3.101221323013306 0.4000027477741241 L 14.22860527038574 0.4000027477741241 L 11.79414463043213 13.97484302520752 Z" stroke="none"/>
        <path d="M 3.431479454040527 0.8000030517578125 L 0.9689426422119141 13.57484245300293 L 11.45949649810791 13.57484245300293 L 13.75048828125 0.8000030517578125 L 3.431479454040527 0.8000030517578125 M 2.770962715148926 2.86102294921875e-06 L 14.7067232131958 2.86102294921875e-06 L 12.12879276275635 14.37484264373779 L 2.86102294921875e-06 14.37484264373779 L 2.770962715148926 2.86102294921875e-06 Z" stroke="none" fill="#fff"/>
      </g>
      <path id="Path_153" data-name="Path 153" d="M1.318.245H7.208V2.239H1.318Z" transform="translate(23.419 23.866)" fill="#fff"/>
      <ellipse id="Ellipse_3-2" data-name="Ellipse 3" cx="4.947" cy="4.453" rx="4.947" ry="4.453" transform="matrix(0.946, -0.326, 0.326, 0.946, 25.536, 3.221)" fill="#fff"/>
      <path id="Path_150" data-name="Path 150" d="M2449.619-385.326l3.9,4.139,7.183-6.894" transform="translate(-2420.854 388.987)" fill="none" stroke="#c40302" stroke-linecap="round" stroke-width="2"/>
      <path id="Path_149" data-name="Path 149" d="M2449.625-385.328l3.889,4.14,7.218-6.926" transform="translate(-2420.899 388.987)" fill="none" stroke="#fff" stroke-linecap="round" stroke-width="1"/>
      <g id="Group_6" data-name="Group 6" transform="translate(9.004 13.649)">
        <path id="Path_133-2" data-name="Path 133" d="M1877.095-376.6l3.244,6.852-1.664,8.187" transform="translate(-1875.443 376.596)" fill="none" stroke="#fff" stroke-width="1.5"/>
        <path id="Path_134-2" data-name="Path 134" d="M1884.093-376.6l-5.785,6.719" transform="translate(-1873.368 376.596)" fill="none" stroke="#fff" stroke-width="1.5"/>
        <path id="Path_151" data-name="Path 151" d="M-.05,0H9.357" transform="translate(0.397 6.707)" fill="none" stroke="#fff" stroke-width="1.5"/>
        <path id="Path_135-2" data-name="Path 135" d="M-.307,0H8.828" transform="translate(0.307 9.339)" fill="none" stroke="#fff" stroke-width="1.5"/>
      </g>
      <g id="Group_7-2" data-name="Group 7" transform="translate(24.242 28.084)">
        <g id="Rectangle_239" data-name="Rectangle 239" transform="translate(0)" fill="none" stroke="#fff" stroke-width="1">
          <rect id="fill" width="0.989" height="0.989" stroke="none"/>
          <path d="M0,0.48948192596435547h0.9894829392433167M0.5,0v0.9894819259643555M0.9894829392433167,0.5h-0.9894829392433167M0.48948293924331665,0.9894819259643555v-0.9894819259643555" fill="none" clip-path="url(#clip)"/>
        </g>
        <g id="Rectangle_240" data-name="Rectangle 240" transform="translate(2.474)" fill="none" stroke="#fff" stroke-width="1">
          <rect id="fill-2" width="0.989" height="0.989" stroke="none"/>
          <path d="M0,0.48948192596435547h0.9894829392433167M0.5,0v0.9894819259643555M0.9894829392433167,0.5h-0.9894829392433167M0.48948293924331665,0.9894819259643555v-0.9894819259643555" fill="none" clip-path="url(#clip-2)"/>
        </g>
        <g id="Rectangle_241" data-name="Rectangle 241" transform="translate(4.947)" fill="none" stroke="#fff" stroke-width="1">
          <rect id="fill-3" width="0.989" height="0.989" stroke="none"/>
          <path d="M0,0.48948192596435547h0.9894829392433167M0.5,0v0.9894819259643555M0.9894829392433167,0.5h-0.9894829392433167M0.48948293924331665,0.9894819259643555v-0.9894819259643555" fill="none" clip-path="url(#clip-3)"/>
        </g>
      </g>
      <g id="Rectangle_242-2" data-name="Rectangle 242" transform="translate(23.748 30.063)" fill="none" stroke="#fff" stroke-width="1">
        <rect id="fill-4" width="0.989" height="0.989" stroke="none"/>
        <path d="M0,0.48948192596435547h0.9894829392433167M0.5,0v0.9894819259643555M0.9894829392433167,0.5h-0.9894829392433167M0.48948293924331665,0.9894819259643555v-0.9894819259643555" fill="none" clip-path="url(#clip-4)"/>
      </g>
      <g id="Rectangle_243" data-name="Rectangle 243" transform="translate(26.221 30.063)" fill="none" stroke="#fff" stroke-width="1">
        <rect id="fill-5" width="0.989" height="0.989" stroke="none"/>
        <path d="M0,0.48948192596435547h0.9894829392433167M0.5,0v0.9894819259643555M0.9894829392433167,0.5h-0.9894829392433167M0.48948293924331665,0.9894819259643555v-0.9894819259643555" fill="none" clip-path="url(#clip-5)"/>
      </g>
      <g id="Rectangle_244-2" data-name="Rectangle 244" transform="translate(28.695 30.063)" fill="none" stroke="#fff" stroke-width="1">
        <rect id="fill-6" width="0.989" height="0.989" stroke="none"/>
        <path d="M0,0.48948192596435547h0.9894829392433167M0.5,0v0.9894819259643555M0.9894829392433167,0.5h-0.9894829392433167M0.48948293924331665,0.9894819259643555v-0.9894819259643555" fill="none" clip-path="url(#clip-6)"/>
      </g>
      <g id="Group_8" data-name="Group 8" transform="translate(23.253 32.042)">
        <g id="Rectangle_245" data-name="Rectangle 245" transform="translate(4.947)" fill="none" stroke="#fff" stroke-width="1">
          <rect id="fill-7" width="0.989" height="0.989" stroke="none"/>
          <path d="M0,0.48948192596435547h0.9894829392433167M0.5,0v0.9894819259643555M0.9894829392433167,0.5h-0.9894829392433167M0.48948293924331665,0.9894819259643555v-0.9894819259643555" fill="none" clip-path="url(#clip-7)"/>
        </g>
        <g id="Rectangle_246" data-name="Rectangle 246" transform="translate(2.474)" fill="none" stroke="#fff" stroke-width="1">
          <rect id="fill-8" width="0.989" height="0.989" stroke="none"/>
          <path d="M0,0.48948192596435547h0.9894829392433167M0.5,0v0.9894819259643555M0.9894829392433167,0.5h-0.9894829392433167M0.48948293924331665,0.9894819259643555v-0.9894819259643555" fill="none" clip-path="url(#clip-8)"/>
        </g>
        <g id="Rectangle_247" data-name="Rectangle 247" fill="none" stroke="#fff" stroke-width="1">
          <rect id="fill-9" width="0.989" height="0.989" stroke="none"/>
          <path d="M0,0.48948192596435547h0.9894829392433167M0.5,0v0.9894819259643555M0.9894829392433167,0.5h-0.9894829392433167M0.48948293924331665,0.9894819259643555v-0.9894819259643555" fill="none" clip-path="url(#clip-9)"/>
        </g>
      </g>
    </g>
  </g>
</svg>
