<svg xmlns="http://www.w3.org/2000/svg" width="66.139" height="12.183" viewBox="0 0 66.139 12.183">
  <g id="Group_1024" data-name="Group 1024" transform="translate(267.887 -725.231)">
    <path id="Polygon_5" data-name="Polygon 5" d="M6.382,0,8.328,4.046l4.435.608L9.531,7.762l.795,4.422L6.382,10.059,2.438,12.183l.795-4.422L0,4.654l4.435-.608Z" transform="translate(-267.887 725.231)" fill="#f2ab00"/>
    <path id="Polygon_6" data-name="Polygon 6" d="M6.382,0,8.328,4.046l4.435.608L9.531,7.762l.795,4.422L6.382,10.059,2.438,12.183l.795-4.422L0,4.654l4.435-.608Z" transform="translate(-254.543 725.231)" fill="#f2ab00"/>
    <path id="Polygon_7" data-name="Polygon 7" d="M6.382,0,8.328,4.046l4.435.608L9.531,7.762l.795,4.422L6.382,10.059,2.438,12.183l.795-4.422L0,4.654l4.435-.608Z" transform="translate(-241.199 725.231)" fill="#f2ab00"/>
    <path id="Polygon_8" data-name="Polygon 8" d="M6.382,0,8.328,4.046l4.435.608L9.531,7.762l.795,4.422L6.382,10.059,2.438,12.183l.795-4.422L0,4.654l4.435-.608Z" transform="translate(-227.856 725.231)" fill="#f2ab00"/>
    <path id="Polygon_9" data-name="Polygon 9" d="M6.382,0,8.328,4.046l4.435.608L9.531,7.762l.795,4.422L6.382,10.059,2.438,12.183l.795-4.422L0,4.654l4.435-.608Z" transform="translate(-214.512 725.231)" fill="#c4c4c4"/>
  </g>
</svg>
