<svg version="1.2" xmlns="http://www.w3.org/2000/svg" viewBox="0 0 66 13" width="66" height="13"><style>.s0{fill:#f2ab00}.s1{fill:#c4c4c4}</style><path class="s0" d="m6.4 0l1.9 4l4.5 0.7l-3.3 3.1l0.8 4.4l-3.9-2.1l-4 2.1l0.8-4.4l-3.2-3.1l4.4-0.7z" /><path class="s0" d="m19.7 0l2 4l4.4 0.7l-3.2 3.1l0.8 4.4l-4-2.1l-3.9 2.1l0.8-4.4l-3.3-3.1l4.5-0.7z" /><path class="s0" d="m33.1 0l1.9 4l4.5 0.7l-3.3 3.1l0.8 4.4l-3.9-2.1l-4 2.1l0.8-4.4l-3.2-3.1l4.4-0.7z" /><path class="s1" d="m46.8 0l1.9 4l4.4 0.7l-3.2 3.1l0.8 4.4l-3.9-2.1l-4 2.1l0.8-4.4l-3.2-3.1l4.4-0.7z" /><path class="s1" d="m59.8 0l1.9 4l4.4 0.7l-3.2 3.1l0.8 4.4l-3.9-2.1l-4 2.1l0.8-4.4l-3.2-3.1l4.4-0.7z" /></svg>